# xmcd CD database file
#
# Track frame offsets:
#	150
#	18804
#	39606
#	57067
#	84758
#	100874
#	119895
#	139772
#	156151
#	171006
#	187156
#	204301
#	218788
#	233573
#	248076
#	262728
#	278113
#	294994
#	314964
#
# Disc length: 4434 seconds
#
# Revision: 0
# Processed by: cddbd v1.5.1PL2 Copyright (c) Steve Scherf et al.
# Submitted via: CDex 1.51
#
DISCID=0a115013
DTITLE=Various Artist - Deep Heat The 5th Attack CD 1
DYEAR=1999
DGENRE=Mix
TTITLE0=Poco Loco Gang - Let´s go to the Party
TTITLE1=DJ Bobo - Together 
TTITLE2=Mark Oh - Your Love
TTITLE3=Bibi Schön - Oooh my Baby
TTITLE4=Inferno DJ´s - Why don´t you
TTITLE5=Cosmic Gate - Mental Atmosphere
TTITLE6=Big Room * Dance with the Devil
TTITLE7=Aquagen - Ihr seid so Leise
TTITLE8=DJ Taylor - Gott Tanzte
TTITLE9=Plastika - Do it to me
TTITLE10=2 Eivissa - I wanne be your toy
TTITLE11=Miranda - Vamos a la Playa 
TTITLE12=Prezioso - Tell me why
TTITLE13=Paradiso - Samba del Diabolo
TTITLE14=DJ Aikon - My desperate Love
TTITLE15=Bossi - Reality
TTITLE16=666 - Bomba 
TTITLE17=Scooter - Faster Harder Scooter 
TTITLE18=Mellow Trax - Outa Space
EXTD=YEAR: 1999
EXTT0=
EXTT1=
EXTT2=
EXTT3=
EXTT4=
EXTT5=
EXTT6=
EXTT7=
EXTT8=
EXTT9=
EXTT10=
EXTT11=
EXTT12=
EXTT13=
EXTT14=
EXTT15=
EXTT16=
EXTT17=
EXTT18=
PLAYORDER=
